<svg id="Layer_1" data-name="Layer 1" xmlns="http://www.w3.org/2000/svg" viewBox="0 0 366.08 52.74"><defs><style>.cls-1{fill:#00458f;}</style></defs><title>ait-logo-1</title><path class="cls-1" d="M48.31,52.16h-5.4a2.33,2.33,0,0,1-1.51-.46,3,3,0,0,1-.86-1.19L35.71,38.05H12.56L7.74,50.51a2.51,2.51,0,0,1-.83,1.15,2.27,2.27,0,0,1-1.51.5H0L20.63.58h7.05ZM33.77,33l-8.1-21c-.24-.62-.49-1.35-.76-2.17s-.51-1.71-.75-2.65a40.34,40.34,0,0,1-1.55,4.86L14.51,33Z"/><path class="cls-1" d="M90.72,41.51a1.32,1.32,0,0,1,1,.47l2.77,3a22,22,0,0,1-7.69,5.73,26.24,26.24,0,0,1-10.92,2.05,25.41,25.41,0,0,1-10.08-1.93,22,22,0,0,1-7.74-5.4,24.34,24.34,0,0,1-5-8.33,31,31,0,0,1-1.76-10.69A30.1,30.1,0,0,1,53.17,15.7a24.63,24.63,0,0,1,5.17-8.36,23.18,23.18,0,0,1,8-5.41A26.45,26.45,0,0,1,76.57,0a25.12,25.12,0,0,1,9.72,1.76,24.71,24.71,0,0,1,7.42,4.79L91.4,9.76a1.94,1.94,0,0,1-.55.59,1.59,1.59,0,0,1-.92.23,2.87,2.87,0,0,1-1.59-.7A23,23,0,0,0,85.9,8.32a20.27,20.27,0,0,0-16.67-.89,16.1,16.1,0,0,0-5.71,4,18.47,18.47,0,0,0-3.72,6.41,25.49,25.49,0,0,0-1.34,8.53A25,25,0,0,0,59.85,35a18.87,18.87,0,0,0,3.78,6.39,16,16,0,0,0,5.65,4,18,18,0,0,0,7,1.37,29.06,29.06,0,0,0,4.16-.27,16.78,16.78,0,0,0,3.42-.85,14.15,14.15,0,0,0,2.91-1.46,20.73,20.73,0,0,0,2.69-2.1A1.83,1.83,0,0,1,90.72,41.51Z"/><path class="cls-1" d="M138.2,6.44H121.5V52.16h-7V6.44H97.81V.58H138.2Z"/><path class="cls-1" d="M153.54,52.16h-7V.58h7Z"/><path class="cls-1" d="M215.1,26.39A29.68,29.68,0,0,1,213.26,37a24.4,24.4,0,0,1-5.18,8.33A23.15,23.15,0,0,1,200,50.78a29,29,0,0,1-20.75,0,23.26,23.26,0,0,1-8-5.42A24.4,24.4,0,0,1,166.07,37a29.68,29.68,0,0,1-1.84-10.64,29.64,29.64,0,0,1,1.84-10.64,24.49,24.49,0,0,1,5.18-8.35,23.36,23.36,0,0,1,8-5.46,28.71,28.71,0,0,1,20.75,0,23.25,23.25,0,0,1,8.05,5.46,24.49,24.49,0,0,1,5.18,8.35A29.64,29.64,0,0,1,215.1,26.39Zm-7.16,0a26.3,26.3,0,0,0-1.3-8.53A18,18,0,0,0,203,11.47a16.1,16.1,0,0,0-5.76-4,21,21,0,0,0-15.09,0,16.14,16.14,0,0,0-5.77,4,17.78,17.78,0,0,0-3.69,6.39,26,26,0,0,0-1.3,8.53,25.87,25.87,0,0,0,1.3,8.51,17.78,17.78,0,0,0,3.69,6.37,15.85,15.85,0,0,0,5.77,4,21.17,21.17,0,0,0,15.09,0,15.81,15.81,0,0,0,5.76-4,18,18,0,0,0,3.67-6.37A26.13,26.13,0,0,0,207.94,26.39Z"/><path class="cls-1" d="M267.59.58V52.16h-3.5a3,3,0,0,1-1.38-.28,3.62,3.62,0,0,1-1.1-1L231.77,12c0,.6.08,1.19.1,1.77s0,1.11,0,1.62V52.16h-6.12V.58h3.6a4.49,4.49,0,0,1,.79.05,2.32,2.32,0,0,1,.58.18,2,2,0,0,1,.5.36,5.41,5.41,0,0,1,.54.59l29.85,38.85c0-.63-.09-1.23-.13-1.82s0-1.15,0-1.67V.58Z"/><path class="cls-1" d="M307.62,52.16h-7V.58h7Z"/><path class="cls-1" d="M356.4,6.44H339.69V52.16h-6.94V6.44H316V.58H356.4Z"/><path class="cls-1" d="M357.08,48.2a4.71,4.71,0,0,1,.34-1.76,4.54,4.54,0,0,1,.94-1.44,4.42,4.42,0,0,1,1.42-1,4.51,4.51,0,0,1,3.53,0,4.54,4.54,0,0,1,2.41,2.41,4.56,4.56,0,0,1,0,3.55,4.65,4.65,0,0,1-1,1.42,4.41,4.41,0,0,1-1.44,1,4.75,4.75,0,0,1-3.53,0,4.22,4.22,0,0,1-1.42-1,4.57,4.57,0,0,1-.94-1.42A4.72,4.72,0,0,1,357.08,48.2Z"/></svg>